<!-- icon666.com - MILLIONS vector ICONS FREE --><svg id="Layer_1" enable-background="new 0 0 512 512" viewBox="0 0 512 512" fill='#fdfff5' xmlns="http://www.w3.org/2000/svg"><g fill='#fdfff5' ><path d="m479.846 496.23v-368h-127.693v368h-32.307v-368h-127.693v368h-32.307v-368h-127.693v368h-32.153v15.693h512v-15.693zm-335.693 0h-96.307v-352.307h96.307zm160 0h-96.307v-352.307h96.307zm160 0h-96.307v-352.307h96.307z"></path><path d="m223.847 63.924h64.306v56.153h15.693v-71.846h-39.999v-48.154h-15.694v48.154h-39.999v71.846h15.693z"></path><path d="m232.154 80.077h15.693v31.999h-15.693z"></path><path d="m216.157 168.074h15.693v24h-15.693z"></path><path d="m248.15 168.074h15.693v24h-15.693z"></path><path d="m280.154 168.074h15.693v24h-15.693z"></path><path d="m216.157 208.081h15.693v24h-15.693z"></path><path d="m248.15 208.081h15.693v24h-15.693z"></path><path d="m280.154 208.081h15.693v24h-15.693z"></path><path d="m216.157 248.078h15.693v24h-15.693z"></path><path d="m248.15 248.078h15.693v24h-15.693z"></path><path d="m280.154 248.078h15.693v24h-15.693z"></path><path d="m216.157 288.074h15.693v24h-15.693z"></path><path d="m248.15 288.074h15.693v24h-15.693z"></path><path d="m280.154 288.074h15.693v24h-15.693z"></path><path d="m216.157 328.081h15.693v24h-15.693z"></path><path d="m248.15 328.081h15.693v24h-15.693z"></path><path d="m280.154 328.081h15.693v24h-15.693z"></path><path d="m216.157 368.078h15.693v24h-15.693z"></path><path d="m248.15 368.078h15.693v24h-15.693z"></path><path d="m280.154 368.078h15.693v24h-15.693z"></path><path d="m216.157 408.074h15.693v24h-15.693z"></path><path d="m248.15 408.074h15.693v24h-15.693z"></path><path d="m280.154 408.074h15.693v24h-15.693z"></path><path d="m216.157 448.081h15.693v24h-15.693z"></path><path d="m248.15 448.081h15.693v24h-15.693z"></path><path d="m280.154 448.081h15.693v24h-15.693z"></path><path d="m264.157 80.077h15.693v31.999h-15.693z"></path><path d="m63.997 168.231h24v15.693h-24z"></path><path d="m104.004 168.231h24v15.693h-24z"></path><path d="m63.997 200.234h24v15.693h-24z"></path><path d="m104.004 200.234h24v15.693h-24z"></path><path d="m63.997 232.228h24v15.693h-24z"></path><path d="m104.004 232.228h24v15.693h-24z"></path><path d="m63.997 264.231h24v15.693h-24z"></path><path d="m104.004 264.231h24v15.693h-24z"></path><path d="m63.997 296.235h24v15.693h-24z"></path><path d="m104.004 296.235h24v15.693h-24z"></path><path d="m63.997 328.228h24v15.693h-24z"></path><path d="m104.004 328.228h24v15.693h-24z"></path><path d="m63.997 360.231h24v15.693h-24z"></path><path d="m104.004 360.231h24v15.693h-24z"></path><path d="m63.997 392.224h24v15.693h-24z"></path><path d="m104.004 392.224h24v15.693h-24z"></path><path d="m63.997 424.228h24v15.693h-24z"></path><path d="m104.004 424.228h24v15.693h-24z"></path><path d="m63.997 456.231h24v15.693h-24z"></path><path d="m104.004 456.231h24v15.693h-24z"></path><path d="m384.001 168.231h24v15.693h-24z"></path><path d="m423.997 168.231h24v15.693h-24z"></path><path d="m384.001 200.234h24v15.693h-24z"></path><path d="m423.997 200.234h24v15.693h-24z"></path><path d="m384.001 232.228h24v15.693h-24z"></path><path d="m423.997 232.228h24v15.693h-24z"></path><path d="m384.001 264.231h24v15.693h-24z"></path><path d="m423.997 264.231h24v15.693h-24z"></path><path d="m384.001 296.235h24v15.693h-24z"></path><path d="m423.997 296.235h24v15.693h-24z"></path><path d="m384.001 328.228h24v15.693h-24z"></path><path d="m423.997 328.228h24v15.693h-24z"></path><path d="m384.001 360.231h24v15.693h-24z"></path><path d="m423.997 360.231h24v15.693h-24z"></path><path d="m384.001 392.224h24v15.693h-24z"></path><path d="m423.997 392.224h24v15.693h-24z"></path><path d="m384.001 424.228h24v15.693h-24z"></path><path d="m423.997 424.228h24v15.693h-24z"></path><path d="m384.001 456.231h24v15.693h-24z"></path><path d="m423.997 456.231h24v15.693h-24z"></path></g><g></g><g></g><g></g><g></g><g></g><g></g><g></g><g></g><g></g><g></g><g></g><g></g><g></g><g></g><g></g></svg>